<svg xmlns="http://www.w3.org/2000/svg" viewBox="0 0 100 100">
  <defs>
    <linearGradient id="grad" x1="0%" y1="0%" x2="100%" y2="100%">
      <stop offset="0%" style="stop-color:#10b981;stop-opacity:1" />
      <stop offset="100%" style="stop-color:#14b8a6;stop-opacity:1" />
    </linearGradient>
  </defs>
  <rect width="100" height="100" rx="20" fill="#0f172a"/>
  <path d="M50 20 C65 20 75 30 75 45 C75 60 50 80 50 80 C50 80 25 60 25 45 C25 30 35 20 50 20 Z" fill="url(#grad)"/>
  <path d="M50 30 C40 30 33 38 33 48 C33 58 50 72 50 72 C50 72 67 58 67 48 C67 38 60 30 50 30 Z" fill="#0f172a"/>
  <path d="M45 45 L50 55 L55 45 M50 55 L50 42" stroke="#10b981" stroke-width="3" fill="none" stroke-linecap="round" stroke-linejoin="round"/>
</svg>
